<svg clip-rule="evenodd" fill-rule="evenodd" stroke-linecap="round" stroke-miterlimit="10" viewBox="0 0 8992 2212" xmlns="http://www.w3.org/2000/svg"><g fill="none" stroke="#48b9d5" stroke-width="54.17"><path d="m7997.78 1105.52v833.334"/><path d="m7811.52 1476.42 186.252-186.252 186.252 186.252" stroke-linecap="square"/><path d="m7756.83 1781.55 240.943-240.944 240.944 240.944"/><path d="m7997.78 1105.52-721.688 416.667"/><path d="m7583.44 1129.67 254.425 68.173-68.173 254.425" stroke-linecap="square"/><path d="m7291.85 1234.87 329.135 88.191-88.192 329.135"/><path d="m7997.78 1105.52-721.688-416.666"/><path d="m7769.69 758.767 68.173 254.425-254.425 68.173" stroke-linecap="square"/><path d="m7532.79 558.841 88.192 329.135-329.135 88.191"/><path d="m7997.78 1105.52v-833.333"/><path d="m8184.03 734.614-186.252 186.252-186.252-186.252" stroke-linecap="square"/><path d="m8238.72 429.49-240.944 240.944-240.943-240.944"/><path d="m7997.78 1105.52 721.688-416.666"/><path d="m8412.11 1081.37-254.425-68.173 68.173-254.425" stroke-linecap="square"/><path d="m8703.7 976.167-329.135-88.191 88.191-329.135"/><path d="m7997.78 1105.52 721.688 416.667"/><path d="m8225.86 1452.27-68.173-254.425 254.425-68.173" stroke-linecap="square"/><path d="m8462.76 1652.19-88.191-329.135 329.135-88.191"/></g><path d="m504.66 1821.46h-127.976l-376.684-1431.88h108.659l330.806 1267.69 347.709-1267.69h147.293l350.123 1267.69 330.806-1267.69h108.659l-376.684 1431.88h-127.976l-357.367-1294.25z" fill="#fff" fill-rule="nonzero"/><path d="m1909.98 389.576h96.586v1431.88h-96.586z" fill="#fff" fill-rule="nonzero"/><path d="m2412.23 1821.46h-96.586v-1431.88h132.805l864.443 1313.57v-1313.57h96.585v1431.88h-132.805l-864.442-1294.25z" fill="#fff" fill-rule="nonzero"/><path d="m4160.43 1821.46h-96.585v-1337.71h-490.173v-94.171h1081.76v94.171h-495.002z" fill="#fff" fill-rule="nonzero"/><path d="m5754.1 1821.46h-934.467v-1431.88h934.467v94.171h-837.881v550.538h765.442v89.342h-765.442v606.076h837.881v91.756z" fill="#fff" fill-rule="nonzero"/><path d="m6031.78 1821.46h-96.586v-1431.88h683.344c98.196 0 181.904 37.024 251.123 111.073 69.22 72.44 103.83 160.977 103.83 265.611 0 91.757-20.927 171.44-62.781 239.05-43.463 67.61-97.39 107.049-161.781 118.317 59.561 16.098 107.854 66.805 144.879 152.123 37.024 85.317 55.537 188.342 55.537 309.074 0 67.61 1.609 118.318 4.829 152.123 3.219 40.244 9.658 68.415 19.317 84.512h-96.586c-16.097-19.317-26.561-54.732-31.39-106.244l-7.244-205.245c0-96.586-23.342-179.488-70.025-248.708-45.073-67.61-100.61-101.415-166.61-101.415h-569.856v661.612zm0-750.954h569.856c75.659 0 140.854-28.976 195.586-86.927 53.122-56.342 79.683-125.561 79.683-207.659 0-80.488-26.561-149.708-79.683-207.66-54.732-56.341-119.927-84.512-195.586-84.512h-569.856z" fill="#fff" fill-rule="nonzero"/></svg>